<svg width="64" height="64" viewBox="0 0 64 64" fill="none" xmlns="http://www.w3.org/2000/svg">
  <circle cx="32" cy="32" r="30" fill="#063447"/>
  <circle cx="32" cy="32" r="25" fill="#FFF9EA"/>
  <path d="M16 11C23 20 25 29 23 39C22 45 19 50 15 55" stroke="#D96F27" stroke-width="4" stroke-linecap="round"/>
  <path d="M49 9C42 18 39 28 41 38C42 45 46 51 51 56" stroke="#D96F27" stroke-width="4" stroke-linecap="round"/>
  <path d="M20 18L16 20M22 24L17 26M23 30L18 31M23 36L18 36M21 42L17 41M44 17L49 19M42 23L47 25M41 29L46 30M41 35L46 35M43 41L47 40" stroke="#C9452E" stroke-width="2.2" stroke-linecap="round"/>
  <circle cx="32" cy="32" r="26.5" stroke="#FFD767" stroke-width="3"/>
</svg>
